# xmcd
#
# Track frame offsets:
#	150
#	12664
#	24294
#	33642
#	44007
#	54284
#	66821
#	82385
#	94311
#	105516
#	118443
#
# Disc length: 1764 seconds
#
# Revision: 1
# Processed by: cddbd v1.5.2PL0 Copyright (c) Steve Scherf et al.
# Submitted via: audiograbber 1.83.01
#
DISCID=9b06e20b
DTITLE=Bobby Bare - Detroit City
DYEAR=1993
DGENRE=Country
TTITLE0=500 Miles Away From Home
TTITLE1=Homestead On the Farm
TTITLE2=Let Me Tell You About Mary
TTITLE3=Abilene
TTITLE4=Gotta Travel On
TTITLE5=Lynchin´ Party
TTITLE6=Worried Man Blues
TTITLE7=I Wonder Where You Are Tonight
TTITLE8=Sailor Man
TTITLE9=What Kind Of Bird Is That
TTITLE10=Jennie´s Last Kiss
EXTD=
EXTT0=
EXTT1=
EXTT2=
EXTT3=
EXTT4=
EXTT5=
EXTT6=
EXTT7=
EXTT8=
EXTT9=
EXTT10=
PLAYORDER=
